<?xml version="1.0" encoding="UTF-8"?>
<svg id="Layer_1" xmlns="http://www.w3.org/2000/svg" version="1.1" viewBox="0 0 61 51">
  <!-- Generator: Adobe Illustrator 29.3.1, SVG Export Plug-In . SVG Version: 2.1.0 Build 151)  -->
  <defs>
    <style>
      .st0 {
        fill: #fbb145;
      }

      .st1 {
        fill: #fff;
      }
    </style>
  </defs>
  <path class="st1" d="M45.6,24.3c0,8.5-6.9,15.4-15.4,15.4s-2.7-.2-3.9-.5l-6.2,3.6c-.9.5-2,.2-2.5-.7-.2-.4-.3-.9-.2-1.4l1.6-5.9c-2.6-2.8-4.1-6.6-4.1-10.4,0-8.5,6.9-15.4,15.4-15.4s15.4,6.9,15.4,15.4h0ZM26,24.3c0-1-.8-1.8-1.8-1.8h0c-1,0-1.8.8-1.8,1.8s.8,1.8,1.8,1.8,1.8-.8,1.8-1.8ZM32.1,24.3v-.4c0-.1,0-.2-.1-.3,0-.2-.2-.4-.4-.6,0,0-.2-.2-.3-.2-.1-.1-.3-.2-.5-.2h-1.1c-.1,0-.2,0-.3.1-.1,0-.2.1-.3.2-.5.4-.7,1-.7,1.6v.4c0,.1,0,.2.1.3,0,.2.2.3.3.4.1.1.3.2.4.3.2,0,.3.1.5.2.8.2,1.6-.2,2-.9,0-.1.1-.2.1-.3v-.5h.3ZM38.2,24.3c0-1-.8-1.8-1.8-1.8h0c-1,0-1.8.8-1.8,1.8s.8,1.8,1.8,1.8,1.8-.8,1.8-1.8Z"/>
  <path class="st0" d="M60.5,28.1c.2,4.8-3.5,8.9-8.3,9.1-.7,0-1.5,0-2.2-.2-3.6,5.5-9.4,9.3-15.9,10.4-.9,2.7-3.8,4.1-6.4,3.2-2.7-.9-4.1-3.8-3.2-6.4s3.8-4.1,6.4-3.2c1.3.5,2.4,1.5,3,2.8,9.4-1.7,16.2-9.9,16.1-19.4,0-10.9-8.9-19.8-19.8-19.8S10.5,13.3,10.5,24.3s.9,6.7,2.5,9.6c0,0,0,.2.1.3.3.9-.1,1.9-1,2.3-1.2.5-2.5.7-3.8.7-4.8-.2-8.5-4.3-8.3-9.1v-4.8c.2-4.7,4.1-8.4,8.8-8.3C12.4,6.6,20.7.8,30.3.8s17.9,5.8,21.5,14.1c4.7,0,8.6,3.7,8.8,8.3v4.8h0Z"/>
</svg>